<svg xmlns="http://www.w3.org/2000/svg" version="1.1" xmlns:xlink="http://www.w3.org/1999/xlink" xmlns:svgjs="http://svgjs.dev/svgjs" width="100%" height="100%" viewBox="0 0 1000 600"><rect width="1000" height="600" x="0" y="0" fill="#242B33 "/><g><rect width="333.3333333333333" height="333.3333333333333" y="324.70371299311137" fill="#d4c17f" transform="matrix(0.41324848568047834,0,0,0.4132484856804784,0,96.94195377084186)" x="302.4814453125"/><path d="M405.28816289811755 490.12616740828713L405.28816289811755 490.12616740828713Q405.28816289811755 476.5845017779563 409.9756625393859 463.5636694410997Q414.6631621806543 450.5428371042431 423.6330689015999 439.80788422207917Q432.6029756225456 429.07293133991516 445.7106135083145 422.7361262693116Q458.8471865770543 416.3703860157373 475.5138519682307 416.3703860157373L475.5138519682307 416.3703860157373Q495.3055171202527 416.3703860157373 509.36801604405787 425.4270982855953Q523.4305149678629 434.51274573842414 530.0856070511452 448.66205021114166L530.0856070511452 448.66205021114166L518.6272745947114 455.7511700389858Q513.8529694045307 445.9710781948579 506.561303295891 440.24191196664106Q499.2696371872513 434.51274573842414 491.02311004057543 431.99538481996524Q482.8055180768704 429.5069590844771 474.67473166207776 429.5069590844771L474.67473166207776 429.5069590844771Q461.3356123125425 429.5069590844771 451.1214927238527 434.80209756813207Q440.9363083181338 440.12617123475786 433.93399403920205 448.98033722382036Q426.96061494324107 457.83450321288285 423.43052262080437 468.77200237584236Q419.8714951153969 479.7095015388019 419.8714951153969 490.96528771444014L419.8714951153969 490.96528771444014Q419.8714951153969 503.2627404770269 424.03816146319105 514.4895914696943Q428.20482781098514 525.7453776453326 435.72797538339114 534.3969973535995Q443.2221877728264 543.0486170618665 453.32056662963294 548.141209264726Q463.4189454864395 553.2627366505562 475.31130568743515 553.2627366505562L475.31130568743515 553.2627366505562Q483.6446383830234 553.2627366505562 492.3830636402027 550.3402831705062Q501.121488897382 547.4178296904561 508.7314420187004 541.3703764495605Q516.3413951400188 535.3229232086649 520.913154049404 525.7453776453326L520.913154049404 525.7453776453326L533.0080605311953 531.9953771670238Q528.43630162181 543.0486170618665 518.8298208755069 550.7453757320973Q509.2522753121747 558.4710695852988 497.47565584306216 562.4062544693265Q485.72797155692047 566.3703745363251 474.4721853812822 566.3703745363251L474.4721853812822 566.3703745363251Q459.2522791386454 566.3703745363251 446.5497338144675 559.8020880019552Q433.8471884902897 553.2627366505562 424.5589947566653 542.3252374875967Q415.29973620601174 531.3877383246372 410.29394955206465 517.7303319624232Q405.28816289811755 504.0729256002091 405.28816289811755 490.12616740828713Z " fill="#ffffff" transform="matrix(0.41324848568047834,0,0,0.4132484856804784,0,96.94195377084186)"/><path d="M719.148113915197 492.3703891416704L719.148113915197 492.3703891416704Q719.148113915197 479.3703900600234 723.6481135973056 466.8703909430551Q728.1481132794142 454.3703918260868 736.7592237822146 444.0648369985418Q745.3703342850149 433.75928217099687 757.9536667294296 427.6759492674056Q770.56477694966 421.5648385879989 786.5647758193793 421.5648385879989L786.5647758193793 421.5648385879989Q805.5647744771711 421.5648385879989 819.0647735234969 430.25928241824573Q832.5647725698227 438.98150402430804 838.9536610073842 452.5648363980803L838.9536610073842 452.5648363980803L827.9536617844522 459.37039147287413Q823.3703287748971 449.98150324724014 816.3703292693949 444.4815036357741Q809.3703297638926 438.98150402430804 801.4536636564794 436.56483752836084Q793.5647753248816 434.1759488082291 785.7592203207303 434.1759488082291L785.7592203207303 434.1759488082291Q772.9536656697917 434.1759488082291 763.1481108069254 439.25928178246295Q753.3703337198747 444.37039253251214 746.6481119725273 452.8703919320506Q739.9536680009953 461.370391331589 736.5647793515062 471.87039058984243Q733.1481129262015 482.3703898480958 733.1481129262015 493.17594464031947L733.1481129262015 493.17594464031947Q733.1481129262015 504.9814993619006 737.1481126436314 515.7592763783089Q741.1481123610613 526.5648311705326 748.3703340730874 534.8703861393626Q755.5647780092979 543.1759411081925 765.2592217689023 548.064829651718Q774.9536655285066 552.9814959710588 786.3703313886709 552.9814959710588L786.3703313886709 552.9814959710588Q794.3703308235306 552.9814959710588 802.7592191198071 550.1759406136948Q811.1481074160837 547.3703852563308 818.4536624555562 541.5648301108945Q825.7592174950288 535.7592749654581 830.1481060738754 526.5648311705326L830.1481060738754 526.5648311705326L841.7592163647482 532.5648307466773Q837.3703277859016 543.1759411081925 828.1481062151605 550.5648294751117Q818.953662420235 557.9814956178461 807.6481076633326 561.7592731287522Q796.3703306822456 565.5648284154736 785.5647758900219 565.5648284154736L785.5647758900219 565.5648284154736Q770.9536658110767 565.5648284154736 758.7592222280788 559.2592733053584Q746.5647786450809 552.9814959710588 737.6481126083102 542.4814967128054Q728.7592243473549 531.9814974545521 723.953669131276 518.8703872696432Q719.148113915197 505.7592770847342 719.148113915197 492.3703891416704ZM907.370322840924 566.3703839141226L907.370322840924 566.3703839141226Q896.148101411468 566.3703839141226 886.6481020825721 562.0648286627224Q877.1481027536762 557.7592734113223 870.259214351436 550.2592739411414Q863.3703259491956 542.7592744709603 859.5647706624742 533.0648307113561Q855.7592153757528 523.3703869517517 855.7592153757528 512.5648321595281L855.7592153757528 512.5648321595281Q855.7592153757528 501.37038850588755 859.5647706624742 491.6759447462832Q863.3703259491956 481.98150098667895 870.3703254546979 474.481501516498Q877.3703249602002 466.981502046317 886.870324289096 462.67594679491685Q896.3703236179919 458.37039154351663 907.5647672716324 458.37039154351663L907.5647672716324 458.37039154351663Q918.7592109252729 458.37039154351663 928.1480991509069 462.67594679491685Q937.5647651523562 466.981502046317 944.5647646578585 474.481501516498Q951.5647641633608 481.98150098667895 955.3703194500822 491.6759447462832Q959.1480969609881 501.37038850588755 959.1480969609881 512.5648321595281L959.1480969609881 512.5648321595281Q959.1480969609881 523.3703869517517 955.3703194500822 533.0648307113561Q951.5647641633608 542.7592744709603 944.648097985305 550.2592739411414Q937.7592095830647 557.7592734113223 928.2592102541688 562.0648286627224Q918.7592109252729 566.3703839141226 907.370322840924 566.3703839141226ZM869.5647699560488 512.7592765902364L869.5647699560488 512.7592765902364Q869.5647699560488 524.3703868811092 874.6481029302826 533.8703862100051Q879.7592136803319 543.370385538901 888.3703241831322 548.870385150367Q896.9536569101172 554.3703847618331 907.370322840924 554.3703847618331L907.370322840924 554.3703847618331Q917.7592109959154 554.3703847618331 926.3703214987158 548.7592740471051Q934.9536542257007 543.1759411081925 940.1480983031963 533.4814973485884Q945.3703201565075 523.7592758131685 945.3703201565075 512.3703877288197L945.3703201565075 512.3703877288197Q945.3703201565075 500.7592774379469 940.1480983031963 491.1759447816045Q934.9536542257007 481.5648343494467 926.3703214987158 475.9815014105342Q917.7592109959154 470.3703906958062 907.370322840924 470.3703906958062L907.370322840924 470.3703906958062Q896.9536569101172 470.3703906958062 888.4536575105786 476.1759458412426Q879.9536581110402 481.98150098667895 874.7592140335445 491.48150031557486Q869.5647699560488 500.9814996444708 869.5647699560488 512.7592765902364ZM1136.9536399559083 503.3703883646025L1136.9536399559083 564.3703840554077L1123.3703075821359 564.3703840554077L1123.3703075821359 506.17594372196646Q1123.3703075821359 487.9815005628237 1117.5647524366996 479.3703900600234Q1111.7591972912633 470.75927955722295 1100.3703092069143 470.75927955722295L1100.3703092069143 470.75927955722295Q1088.5647544853332 470.75927955722295 1079.2591995871458 479.175945629315Q1069.9536446889583 487.5648339255915 1066.1480894022368 500.7592774379469L1066.1480894022368 500.7592774379469L1066.1480894022368 564.3703840554077L1052.5647570284646 564.3703840554077L1052.5647570284646 506.17594372196646Q1052.5647570284646 487.7592783562999 1046.9536463137365 479.2592789567614Q1041.370313374824 470.75927955722295 1029.7592030839514 470.75927955722295L1029.7592030839514 470.75927955722295Q1018.1480927930785 470.75927955722295 1008.7592045674446 478.98150119860657Q999.3703163418106 487.1759450641747 995.5647610550891 500.56483300723846L995.5647610550891 500.56483300723846L995.5647610550891 564.3703840554077L981.9536509055015 564.3703840554077L981.9536509055015 460.17594697152316L994.3703166950232 460.17594697152316L994.3703166950232 483.75927863887Q1000.9536495632932 471.5648350558721 1011.2592043908382 464.9815021876021Q1021.5647592183832 458.37039154351663 1034.148091662798 458.37039154351663L1034.148091662798 458.37039154351663Q1047.148090744445 458.37039154351663 1055.1480901793047 465.7592799104357Q1063.1480896141643 473.1759460531702 1064.953645042171 485.17594520545975L1064.953645042171 485.17594520545975Q1072.1480889783816 471.98150169310435 1082.259199375218 465.1759466183105Q1092.3703097720547 458.37039154351663 1105.1480866471777 458.37039154351663L1105.1480866471777 458.37039154351663Q1113.9536415806865 458.37039154351663 1120.0647522600932 461.56483576229743Q1126.1480851636845 464.75927998107824 1129.8703071229595 470.67594622977657Q1133.564751306419 476.56483470265937 1135.2591956311635 484.8703896714894Q1136.9536399559083 493.17594464031947 1136.9536399559083 503.3703883646025L1136.9536399559083 503.3703883646025ZM1184.3703032729413 564.3703840554077L1170.7591931233535 564.3703840554077L1170.7591931233535 470.9815017637469L1156.3703052509322 470.9815017637469L1156.3703052509322 460.17594697152316L1170.7591931233535 460.17594697152316L1170.7591931233535 457.3703916141592Q1170.7591931233535 444.56483696322056 1174.453637306813 435.370393168295Q1178.1480814902725 426.17594937336946 1185.0647476683284 421.2592830540286Q1191.9536360705688 416.37039451050316 1201.3703020720181 416.37039451050316L1201.3703020720181 416.37039451050316Q1207.5647460788714 416.37039451050316 1213.3703012243077 418.1759499385097Q1219.1480785939286 419.9815053665163 1223.3703005178822 422.98150515458866L1223.3703005178822 422.98150515458866L1219.1480785939286 432.7592822416394Q1216.5647454430884 430.56483795221607 1212.3703012949502 429.3703935921502Q1208.1480793709966 428.17594923208435 1203.9536352228583 428.17594923208435L1203.9536352228583 428.17594923208435Q1194.5647469972243 428.17594923208435 1189.4536362471752 435.5648375990034Q1184.3703032729413 442.9815037417379 1184.3703032729413 456.9815027527424L1184.3703032729413 456.9815027527424L1184.3703032729413 460.17594697152316L1213.1480790177839 460.17594697152316L1213.1480790177839 470.9815017637469L1184.3703032729413 470.9815017637469L1184.3703032729413 564.3703840554077ZM1276.1480745673039 566.3703839141226L1276.1480745673039 566.3703839141226Q1264.9536309136633 566.3703839141226 1255.4536315847677 562.0648286627224Q1245.9536322558715 557.7592734113223 1239.0647438536314 550.2592739411414Q1232.1480776755757 542.7592744709603 1228.3703001646695 533.0648307113561Q1224.5647448779482 523.3703869517517 1224.5647448779482 512.5648321595281L1224.5647448779482 512.5648321595281Q1224.5647448779482 501.37038850588755 1228.3703001646695 491.6759447462832Q1232.1480776755757 481.98150098667895 1239.148077181078 474.481501516498Q1246.1480766865802 466.981502046317 1255.648076015476 462.67594679491685Q1265.148075344372 458.37039154351663 1276.370296773828 458.37039154351663L1276.370296773828 458.37039154351663Q1287.5647404274685 458.37039154351663 1296.9536286531024 462.67594679491685Q1306.3702946545518 466.981502046317 1313.370294160054 474.481501516498Q1320.3702936655563 481.98150098667895 1324.1480711764623 491.6759447462832Q1327.9536264631836 501.37038850588755 1327.9536264631836 512.5648321595281L1327.9536264631836 512.5648321595281Q1327.9536264631836 523.3703869517517 1324.1480711764623 533.0648307113561Q1320.3702936655563 542.7592744709603 1313.4536274875004 550.2592739411414Q1306.5647390852603 557.7592734113223 1297.0647397563644 562.0648286627224Q1287.5647404274685 566.3703839141226 1276.1480745673039 566.3703839141226ZM1238.3702994582443 512.7592765902364L1238.3702994582443 512.7592765902364Q1238.3702994582443 524.3703868811092 1243.4536324324781 533.8703862100051Q1248.5647431825273 543.370385538901 1257.148075909512 548.870385150367Q1265.7591864123126 554.3703847618331 1276.1480745673039 554.3703847618331L1276.1480745673039 554.3703847618331Q1286.564740498111 554.3703847618331 1295.1480732250957 548.7592740471051Q1303.759183727896 543.1759411081925 1308.953627805392 533.4814973485884Q1314.1480718828875 523.7592758131685 1314.1480718828875 512.3703877288197L1314.1480718828875 512.3703877288197Q1314.1480718828875 500.7592774379469 1308.953627805392 491.1759447816045Q1303.759183727896 481.5648343494467 1295.1480732250957 475.9815014105342Q1286.564740498111 470.3703906958062 1276.1480745673039 470.3703906958062L1276.1480745673039 470.3703906958062Q1265.7591864123126 470.3703906958062 1257.2591870127742 476.1759458412426Q1248.7591876132356 481.98150098667895 1243.56474353574 491.48150031557486Q1238.3702994582443 500.9814996444708 1238.3702994582443 512.7592765902364ZM1402.759176734285 459.7592803342909L1402.759176734285 472.17594612381276Q1389.1480665846973 472.56483498522954 1378.870289532968 479.75927892144017Q1368.564734705423 486.9815006334663 1364.3702905572848 499.564833077881L1364.3702905572848 499.564833077881L1364.3702905572848 564.3703840554077L1350.759180407697 564.3703840554077L1350.759180407697 460.17594697152316L1363.5647350586355 460.17594697152316L1363.5647350586355 485.17594520545975Q1368.9536235668395 474.17594598252765 1377.8702896036104 467.3703909077338Q1386.7591778645656 460.56483583294 1396.7591771581403 459.7592803342909L1396.7591771581403 459.7592803342909Q1398.7591770168551 459.5648359035825 1400.2591769108915 459.5648359035825Q1401.7591768049276 459.5648359035825 1402.759176734285 459.7592803342909L1402.759176734285 459.7592803342909ZM1467.3702832811034 548.3703851856883L1470.9536163613009 559.3703844086205Q1469.3702831398184 559.9814954765611 1465.9536167145136 561.5648286980437Q1462.5647280650244 563.1759396953419 1457.7591728489456 564.3703840554077Q1452.9536176328666 565.5648284154736 1447.3702846939539 565.5648284154736L1447.3702846939539 565.5648284154736Q1441.5647295485176 565.5648284154736 1436.4536187984684 563.3703841260502Q1431.3702858242348 561.175939836627 1428.370286036162 556.6759401545183Q1425.3702862480898 552.1759404724098 1425.3702862480898 545.5648298283244L1425.3702862480898 545.5648298283244L1425.3702862480898 470.9815017637469L1410.9536205998531 470.9815017637469L1410.9536205998531 460.17594697152316L1425.3702862480898 460.17594697152316L1425.3702862480898 424.9815050133036L1438.953618621862 424.9815050133036L1438.953618621862 460.17594697152316L1462.9536169264413 460.17594697152316L1462.9536169264413 470.9815017637469L1438.953618621862 470.9815017637469L1438.953618621862 541.7592745416028Q1439.3702852590943 547.3703852563308 1443.0647294425537 550.1759406136948Q1446.7591736260133 552.9814959710588 1451.564728842092 552.9814959710588L1451.564728842092 552.9814959710588Q1457.1480617810048 552.9814959710588 1461.7591725663754 551.0648294397904Q1466.3702833517457 549.1759406843373 1467.3702832811034 548.3703851856883L1467.3702832811034 548.3703851856883ZM1639.9536044227123 422.370394086648L1653.7591590030083 422.370394086648L1653.7591590030083 564.3703840554077L1639.9536044227123 564.3703840554077L1639.9536044227123 497.9814998563984L1555.7591659259767 497.9814998563984L1555.7591659259767 564.3703840554077L1541.7591669149726 564.3703840554077L1541.7591669149726 422.370394086648L1555.7591659259767 422.370394086648L1555.7591659259767 485.56483406687653L1639.9536044227123 485.56483406687653L1639.9536044227123 422.370394086648ZM1730.9535979942414 566.3703839141226L1730.9535979942414 566.3703839141226Q1719.7591543406008 566.3703839141226 1710.2591550117047 562.0648286627224Q1700.759155682809 557.7592734113223 1693.8702672805687 550.2592739411414Q1686.953601102513 542.7592744709603 1683.1480458157914 533.0648307113561Q1679.3702683048855 523.3703869517517 1679.3702683048855 512.5648321595281L1679.3702683048855 512.5648321595281Q1679.3702683048855 501.37038850588755 1683.1480458157914 491.6759447462832Q1686.953601102513 481.98150098667895 1693.953600608015 474.481501516498Q1700.9536001135175 466.981502046317 1710.4535994424132 462.67594679491685Q1719.953598771309 458.37039154351663 1731.1480424249496 458.37039154351663L1731.1480424249496 458.37039154351663Q1742.3702638544057 458.37039154351663 1751.7591520800395 462.67594679491685Q1761.1480403056737 466.981502046317 1768.148039811176 474.481501516498Q1775.1480393166778 481.98150098667895 1778.9535946033996 491.6759447462832Q1782.7591498901213 501.37038850588755 1782.7591498901213 512.5648321595281L1782.7591498901213 512.5648321595281Q1782.7591498901213 523.3703869517517 1778.9535946033996 533.0648307113561Q1775.1480393166778 542.7592744709603 1768.259150914438 550.2592739411414Q1761.3702625121975 557.7592734113223 1751.8702631833014 562.0648286627224Q1742.3702638544057 566.3703839141226 1730.9535979942414 566.3703839141226ZM1693.1480451093662 512.7592765902364L1693.1480451093662 512.7592765902364Q1693.1480451093662 524.3703868811092 1698.2591558594152 533.8703862100051Q1703.3702666094646 543.370385538901 1711.9535993364495 548.870385150367Q1720.5647098392499 554.3703847618331 1730.9535979942414 554.3703847618331L1730.9535979942414 554.3703847618331Q1741.370263925048 554.3703847618331 1749.9535966520332 548.7592740471051Q1758.5647071548335 543.1759411081925 1763.759151232329 533.4814973485884Q1768.953595309825 523.7592758131685 1768.953595309825 512.3703877288197L1768.953595309825 512.3703877288197Q1768.953595309825 500.7592774379469 1763.759151232329 491.1759447816045Q1758.5647071548335 481.5648343494467 1749.9535966520332 475.9815014105342Q1741.370263925048 470.3703906958062 1730.9535979942414 470.3703906958062L1730.9535979942414 470.3703906958062Q1720.5647098392499 470.3703906958062 1712.0647104397115 476.1759458412426Q1703.564711040173 481.98150098667895 1698.3702669626775 491.48150031557486Q1693.1480451093662 500.9814996444708 1693.1480451093662 512.7592765902364ZM1804.5647039052767 521.3703870930368L1804.5647039052767 521.3703870930368L1804.5647039052767 460.17594697152316L1818.1480362790492 460.17594697152316L1818.1480362790492 518.9814983729051Q1818.1480362790492 536.7592748948156 1824.2591469584556 545.5648298283244Q1830.3702576378626 554.3703847618331 1842.370256790152 554.3703847618331L1842.370256790152 554.3703847618331Q1850.3702562250116 554.3703847618331 1857.8702556951928 550.8703850090819Q1865.370255165374 547.3703852563308 1871.1480325349946 540.8703857155074Q1876.953587680431 534.3703861746839 1879.9535874685032 525.7592756718834L1879.9535874685032 525.7592756718834L1879.9535874685032 460.17594697152316L1893.5646976180913 460.17594697152316L1893.5646976180913 547.9814963242716Q1893.5646976180913 550.75927390582 1894.7591419781568 552.0648293691479Q1895.9535863382227 553.3703848324756 1898.3702528341698 553.564829263184L1898.3702528341698 553.564829263184L1898.3702528341698 564.3703840554077Q1895.9535863382227 564.5648284861161 1894.5646975474485 564.675939589378Q1893.1480309808587 564.7592729168246 1891.9535866207927 564.7592729168246L1891.9535866207927 564.7592729168246Q1887.9535869033632 564.3703840554077 1885.0646982185524 561.5648286980437Q1882.1480317579264 558.7592733406798 1881.9535873272182 554.7592736232499L1881.9535873272182 554.7592736232499L1881.5646984658013 540.7592746122455Q1874.7591433910077 552.759273764535 1863.0646997726883 559.5648288393288Q1851.3702561543694 566.3703839141226 1837.7591460047818 566.3703839141226L1837.7591460047818 566.3703839141226Q1821.3702582736453 566.3703839141226 1812.9535922015532 554.9814958297737Q1804.5647039052767 543.5648299696094 1804.5647039052767 521.3703870930368ZM1958.5646930263258 566.3703839141226L1958.5646930263258 566.3703839141226Q1945.7591383753877 566.3703839141226 1934.7591391524554 562.1759397659844Q1923.7591399295231 557.9814956178461 1915.7591404946636 549.3703851150458L1915.7591404946636 549.3703851150458L1921.3702512093917 539.759274682888Q1930.148028367085 547.9814963242716 1939.0646944038556 551.6759405077311Q1947.9535826648105 555.3703846911906 1957.9535819583855 555.3703846911906L1957.9535819583855 555.3703846911906Q1970.1480255413833 555.3703846911906 1977.7591361148263 550.4814961476652Q1985.3702466882694 545.5648298283244 1985.3702466882694 536.3703860333987L1985.3702466882694 536.3703860333987Q1985.3702466882694 530.1759420265456 1981.648024728994 526.8703867045028Q1977.9535805455346 523.5648313824602 1971.0646921432942 521.4814981962987Q1964.1480259652387 519.3703872343219 1954.5646933088963 516.9814985141902L1954.5646933088963 516.9814985141902Q1943.7591385166727 513.9814987261177 1936.4535834771998 510.67594340407504Q1929.1480284377274 507.3703880820324 1925.453584254268 502.25927733198307Q1921.7591400708081 497.1759443577493 1921.7591400708081 488.9815004921812L1921.7591400708081 488.9815004921812Q1921.7591400708081 478.7592789920827 1926.8702508208578 472.0648350205508Q1931.9535837950914 465.3703910490189 1940.8702498318619 461.87039129626777Q1949.7591380928172 458.37039154351663 1960.7591373157495 458.37039154351663L1960.7591373157495 458.37039154351663Q1972.759136468039 458.37039154351663 1981.9535802629646 462.1759468302381Q1991.14802405789 465.9815021169595 1996.9535792033264 472.75927941593795L1996.9535792033264 472.75927941593795L1990.3702463350567 481.98150098667895Q1984.7591356203286 475.5648347733019 1977.0646917194392 472.4815016577831Q1969.3702478185498 469.37039076644874 1959.9535818171 469.37039076644874L1959.9535818171 469.37039076644874Q1953.5646933795385 469.37039076644874 1947.7591382341022 471.06483509119334Q1941.953583088666 472.75927941593795 1938.2591389052066 476.6759458059213Q1934.5646947217472 480.5648344200892 1934.5646947217472 487.37038949488306L1934.5646947217472 487.37038949488306Q1934.5646947217472 492.98150020961106 1937.3702500791107 496.06483332512994Q1940.1480276606596 499.17594421646425 1945.7591383753877 501.2592774026256Q1951.3702490901153 503.3703883646025 1959.5646929556835 505.7592770847342L1959.5646929556835 505.7592770847342Q1971.3702476772644 508.9814990793305 1980.1480248349578 512.2592766255577Q1988.9535797684669 515.5648319476004 1993.7591349845454 520.7592760250961Q1998.5646902006245 525.9814978784074 1998.5646902006245 535.3703861040412L1998.5646902006245 535.3703861040412Q1998.5646902006245 549.9814961829865 1987.5646909776926 558.1759400485546Q1976.5646917547604 566.3703839141226 1958.5646930263258 566.3703839141226ZM2065.9535743289916 566.3703839141226L2065.9535743289916 566.3703839141226Q2054.759130675351 566.3703839141226 2045.1480202431933 562.0648286627224Q2035.5646875868508 557.7592734113223 2028.5646880813485 550.2592739411414Q2021.5646885758463 542.7592744709603 2017.6480221858626 532.9814973839095Q2013.759133571695 523.1759425210433 2013.759133571695 511.9814988674029L2013.759133571695 511.9814988674029Q2013.759133571695 497.3703887884577 2020.4535775432266 485.17594520545975Q2027.1480215147587 472.9815016224618 2038.9535762363396 465.67594658298924Q2050.759130957921 458.37039154351663 2065.7591298982834 458.37039154351663L2065.7591298982834 458.37039154351663Q2081.1480177000612 458.37039154351663 2092.6480168876724 465.7592799104357Q2104.1480160752835 473.1759460531702 2110.7591267193684 485.2592785329062Q2117.370237363454 497.3703887884577 2117.370237363454 511.759276660879L2117.370237363454 511.759276660879Q2117.370237363454 513.3703876581772 2117.370237363454 514.8703875522133Q2117.370237363454 516.3703874462494 2117.1480151569303 517.1759429448986L2117.1480151569303 517.1759429448986L2027.9535770134078 517.1759429448986Q2028.9535769427655 528.3703865985391 2034.259132123523 537.0648304287859Q2039.5646873042808 545.7592742590327 2048.0646867038186 550.8703850090819Q2056.5646861033574 555.9814957591312 2066.564685396932 555.9814957591312L2066.564685396932 555.9814957591312Q2076.7591291212148 555.9814957591312 2085.870239588694 550.75927390582Q2094.9535722803575 545.5648298283244 2098.564683136371 537.1759415320478L2098.564683136371 537.1759415320478L2110.370237857952 540.3703857508286Q2107.148015863356 547.7592741177476 2100.5646829950856 553.7592736938924Q2093.953572351 559.7592732700373 2085.0646840900454 563.06482859208Q2076.1480180532744 566.3703839141226 2065.9535743289916 566.3703839141226ZM2027.5646881519908 507.3703880820324L2027.5646881519908 507.3703880820324L2104.5646827125156 507.3703880820324Q2103.759127213867 495.98149999768344 2098.4535720331087 487.37038949488306Q2093.1480168523512 478.7592789920827 2084.6480174528133 473.8703904485573Q2076.1480180532744 468.98150190503196 2065.9535743289916 468.98150190503196L2065.9535743289916 468.98150190503196Q2055.759130604708 468.98150190503196 2047.3702423084317 473.8703904485573Q2038.9535762363396 478.7592789920827 2033.6480210555826 487.48150059814503Q2028.3702436506403 496.17594442839186 2027.5646881519908 507.3703880820324Z " fill="#ffffff" transform="matrix(0.41324848568047834,0,0,0.4132484856804784,0,96.94195377084186)"/></g></svg>